<svg width="40" height="41" viewBox="0 0 40 41" fill="none" xmlns="http://www.w3.org/2000/svg">
<g id="c-icon__linkedin-circle--red (1) 1" clip-path="url(#clip0_588_8079)">
<g id="Clip path group">
<mask id="mask0_588_8079" style="mask-type:luminance" maskUnits="userSpaceOnUse" x="0" y="0" width="40" height="41">
<g id="a">
<path id="Vector" d="M0 0.632812H40V40.6328H0V0.632812Z" fill="white"/>
</g>
</mask>
<g mask="url(#mask0_588_8079)">
<g id="Group">
<path id="Vector_2" fill-rule="evenodd" clip-rule="evenodd" d="M20 40.6328C31.0457 40.6328 40 31.6785 40 20.6328C40 9.58711 31.0457 0.632812 20 0.632812C8.9543 0.632812 0 9.58711 0 20.6328C0 31.6785 8.9543 40.6328 20 40.6328ZM10.3304 30.6326H14.4768V17.2799H10.3304V30.6326ZM10 13.0344C10 14.3603 11.0754 15.4585 12.4013 15.4585C13.7268 15.4585 14.8027 14.3603 14.8027 13.0344C14.8027 12.3975 14.5497 11.7867 14.0993 11.3364C13.649 10.886 13.0382 10.633 12.4013 10.633C11.7645 10.633 11.1537 10.886 10.7033 11.3364C10.253 11.7867 10 12.3975 10 13.0344ZM25.858 30.6326H30V23.2978C30 19.7085 29.2286 16.9451 25.0321 16.9451C23.0147 16.9451 21.6625 18.0522 21.1089 19.1013H21.0509V17.2799H17.0741V30.6326H21.2161V24.021C21.2161 22.2799 21.5464 20.5969 23.7022 20.5969C25.8268 20.5969 25.858 22.5835 25.858 24.1326V30.6326Z" fill="#C8194B"/>
</g>
</g>
</g>
</g>
<defs>
<clipPath id="clip0_588_8079">
<rect width="40" height="40" fill="white" transform="translate(0 0.632812)"/>
</clipPath>
</defs>
</svg>
