<svg width="38" height="39" viewBox="0 0 38 39" fill="none" xmlns="http://www.w3.org/2000/svg">
<g id="c-icon__twitter-circle--red 1" clip-path="url(#clip0_588_8076)">
<path id="Vector" d="M19 38.6328C29.4934 38.6328 38 30.1262 38 19.6328C38 9.1394 29.4934 0.632812 19 0.632812C8.50659 0.632812 0 9.1394 0 19.6328C0 30.1262 8.50659 38.6328 19 38.6328Z" fill="#C8194B"/>
<path id="Vector_2" d="M25.8996 8.63281H29.5815L21.5398 17.8218L31 30.3277H23.5945L17.7901 22.7449L11.1565 30.3277H7.46936L16.0691 20.4972L7 8.63281H14.5932L19.8344 15.5637L25.8996 8.63281ZM24.6063 28.1269H26.6454L13.4824 10.7188H11.292L24.6063 28.1269Z" fill="white"/>
</g>
<defs>
<clipPath id="clip0_588_8076">
<rect width="38" height="38" fill="white" transform="translate(0 0.632812)"/>
</clipPath>
</defs>
</svg>
