<svg width="40" height="41" viewBox="0 0 40 41" fill="none" xmlns="http://www.w3.org/2000/svg">
<g id="c-icon__youtube-circle--red 1" clip-path="url(#clip0_588_8085)">
<g id="Clip path group">
<mask id="mask0_588_8085" style="mask-type:luminance" maskUnits="userSpaceOnUse" x="0" y="0" width="40" height="41">
<g id="a">
<path id="Vector" d="M0 0.632812H40V40.6328H0V0.632812Z" fill="white"/>
</g>
</mask>
<g mask="url(#mask0_588_8085)">
<g id="Group">
<path id="Vector_2" fill-rule="evenodd" clip-rule="evenodd" d="M20 40.6328C31.0457 40.6328 40 31.6785 40 20.6328C40 9.58711 31.0457 0.632812 20 0.632812C8.9543 0.632812 0 9.58711 0 20.6328C0 31.6785 8.9543 40.6328 20 40.6328ZM27.8139 14.0222C28.6744 14.2537 29.3521 14.9358 29.5821 15.8019C30 17.3717 30 20.647 30 20.647C30 20.647 30 23.9223 29.5821 25.4921C29.3521 26.3582 28.6744 27.0119 27.8139 27.2434C26.2541 27.664 20 27.664 20 27.664C20 27.664 13.7459 27.664 12.1861 27.2434C11.3256 27.0119 10.6479 26.3582 10.4179 25.4921C10 23.9223 10 20.647 10 20.647C10 20.647 10 17.3717 10.4179 15.8019C10.6479 14.9358 11.3256 14.2537 12.1861 14.0222C13.7459 13.6016 20 13.6016 20 13.6016C20 13.6016 26.2542 13.6016 27.8139 14.0222ZM17.9545 17.6733V23.6207L23.1818 20.6471L17.9545 17.6733Z" fill="#C8194B"/>
</g>
</g>
</g>
</g>
<defs>
<clipPath id="clip0_588_8085">
<rect width="40" height="40" fill="white" transform="translate(0 0.632812)"/>
</clipPath>
</defs>
</svg>
