<svg width="957" height="300" viewBox="0 0 957 300" fill="none" xmlns="http://www.w3.org/2000/svg">
<path fill-rule="evenodd" clip-rule="evenodd" d="M0 292.7H47.5552V6.33083H0V292.7Z" fill="#FAF4E4"/>
<path fill-rule="evenodd" clip-rule="evenodd" d="M409.496 292.7H457.057V6.33083H409.496V292.7Z" fill="#FAF4E4"/>
<path fill-rule="evenodd" clip-rule="evenodd" d="M614.034 292.688H661.596V6.3181H614.034V292.688Z" fill="#FAF4E4"/>
<path fill-rule="evenodd" clip-rule="evenodd" d="M505.852 6.33083H457.066L565.066 292.7H614.053L505.852 6.33083Z" fill="#FAF4E4"/>
<path fill-rule="evenodd" clip-rule="evenodd" d="M867.598 6.33083H820.72L878.383 191.797H763.057L763.461 190.476L820.72 6.33083H773.848L684.608 292.7H731.694L749.901 234.135H891.539L891.764 234.852L909.751 292.7H956.837L867.598 6.33083Z" fill="#FAF4E4"/>
<path fill-rule="evenodd" clip-rule="evenodd" d="M228.322 252.462C169.994 252.462 129.266 210.124 129.266 149.503C129.266 88.8643 169.994 46.5025 228.322 46.5025C286.633 46.5025 327.367 88.8643 327.367 149.503C327.367 210.124 286.633 252.462 228.322 252.462ZM228.329 0C141.924 0 79.2044 62.8795 79.2044 149.509C79.2044 236.133 141.924 299.012 228.329 299.012C314.966 299.012 377.852 236.133 377.852 149.509C377.852 62.8795 314.966 0 228.329 0Z" fill="#FAF4E4"/>
</svg>
